<?xml version="1.0" standalone="no"?>
<!DOCTYPE svg PUBLIC "-//W3C//DTD SVG 20010904//EN"
 "http://www.w3.org/TR/2001/REC-SVG-20010904/DTD/svg10.dtd">
<svg version="1.0" xmlns="http://www.w3.org/2000/svg"
 width="256.000000pt" height="256.000000pt" viewBox="0 0 256.000000 256.000000"
 preserveAspectRatio="xMidYMid meet">
<metadata>
Created by potrace 1.14, written by Peter Selinger 2001-2017
</metadata>
<g transform="translate(0.000000,256.000000) scale(0.100000,-0.100000)"
fill="#000000" stroke="none">
<path d="M87 2262 c-6 -2 -23 -9 -35 -15 -54 -26 -52 4 -52 -962 0 -980 -2
-953 57 -976 20 -8 373 -11 1228 -12 1122 0 1202 1 1227 17 15 10 31 31 37 48
8 21 11 313 11 925 0 818 -1 897 -17 923 -9 16 -27 34 -39 41 -18 9 -292 12
-1214 13 -654 1 -1196 0 -1203 -2z m729 -602 c0 -8 -3 -19 -7 -25 -7 -11 -22
-73 -18 -77 1 -2 -3 -12 -9 -24 -6 -11 -13 -32 -16 -45 -2 -13 -12 -46 -20
-74 -9 -27 -16 -53 -16 -56 0 -3 70 -5 155 -5 109 1 158 5 167 14 6 6 9 12 5
12 -4 0 -3 8 2 18 6 11 12 30 15 43 3 13 14 56 26 94 22 72 29 99 34 125 4 20
41 26 136 22 88 -4 84 4 55 -96 -9 -32 -18 -64 -19 -70 -1 -6 -5 -17 -9 -23
-5 -7 -5 -17 -2 -23 3 -5 1 -10 -4 -10 -6 0 -10 -3 -9 -7 2 -7 -6 -40 -27
-123 -1 -3 -5 -12 -8 -20 -4 -8 -15 -46 -26 -85 -11 -38 -24 -85 -30 -102 -5
-18 -8 -33 -5 -33 3 0 0 -9 -6 -21 -6 -11 -13 -30 -16 -42 -7 -38 -37 -132
-45 -141 -8 -9 -184 -10 -200 -1 -5 4 -6 12 -2 18 4 7 8 14 9 17 3 18 19 74
35 124 11 33 17 62 14 64 -3 3 -1 10 4 16 5 6 11 22 13 36 l3 25 -157 1 -158
1 -16 -56 c-9 -31 -17 -63 -19 -71 -2 -8 -8 -28 -14 -43 -6 -15 -10 -31 -9
-35 1 -4 -4 -20 -10 -35 -7 -16 -10 -32 -7 -37 12 -20 -29 -32 -114 -32 -102
0 -116 4 -101 33 6 10 9 19 6 19 -3 0 2 16 10 35 8 20 12 40 9 45 -4 6 -1 10
4 10 6 0 10 3 9 8 -2 9 9 51 29 115 8 26 16 53 17 60 4 19 35 127 56 192 11
33 21 71 24 85 3 14 12 50 22 80 9 30 17 60 18 65 9 48 17 54 69 57 85 5 152
-5 153 -22z m1139 5 c28 -8 56 -15 64 -17 8 -1 22 -10 31 -18 9 -8 29 -26 46
-40 60 -51 85 -134 72 -239 -12 -100 -69 -226 -122 -270 -9 -7 -13 -17 -10
-22 3 -5 0 -9 -6 -9 -6 0 -25 -13 -41 -29 -39 -39 -119 -84 -199 -111 -57 -20
-93 -23 -289 -27 l-224 -6 7 34 c9 42 11 50 19 69 8 20 99 341 102 360 1 8 7
27 13 43 11 27 12 27 112 27 55 0 100 -3 100 -7 0 -5 -23 -86 -50 -182 -28
-95 -50 -174 -50 -175 0 -1 35 -1 79 0 91 1 151 11 151 24 0 5 6 7 13 4 18 -7
139 98 129 112 -1 3 4 12 12 20 37 36 55 206 25 225 -8 5 -10 9 -5 9 20 0 -39
50 -72 61 -21 7 -108 12 -213 13 -98 0 -180 4 -183 7 -3 3 4 40 16 83 l21 77
201 -2 c125 -1 220 -6 251 -14z"/>
</g>
</svg>
